<svg id="Layer_1" data-name="Layer 1" xmlns="http://www.w3.org/2000/svg" viewBox="0 0 288.53 162.99"><defs><style>.cls-1{fill:#785e3e;}.cls-2{fill:#432727;}.cls-3{fill:#ddbd8b;}.cls-4{fill:#150b00;}.cls-5{fill:#4d4d4d;}</style></defs><path class="cls-1" d="M135.29,214.55a14.38,14.38,0,0,1-9.68-13.7h-1.5l.53,7.29,1.4-.38c-6.32-9.47-13.13-19.88-12.78-31.73,0-.91-1.17-.93-1.47-.2l-2.19,5.32,1.47.2a68.66,68.66,0,0,0-8.24-35.9c-.46-.85-1.75-.09-1.29.76a67.19,67.19,0,0,1,8,35.14c0,.91,1.18.92,1.48.2l2.19-5.32-1.48-.2c-.36,12.13,6.52,22.79,13,32.49.38.57,1.46.42,1.4-.38l-.53-7.29a.75.75,0,0,0-1.5,0A15.92,15.92,0,0,0,134.89,216c.92.31,1.31-1.14.4-1.45Z" transform="translate(-5.36 -69.67)"/><path class="cls-1" d="M99.13,129.5l0-.28c0-.05,0-.05,0,0s0-.08,0-.12a3.6,3.6,0,0,0,0-.65c0-.35-.07-.7-.1-1.05-.06-.72-.13-1.44-.19-2.15a.77.77,0,0,0-.75-.75.76.76,0,0,0-.75.75c.06.71.13,1.43.19,2.15,0,.35.06.7.1,1.05,0,0,0,.24,0,.13a2.4,2.4,0,0,1,0,.24c0,.22-.06.45-.08.67a.76.76,0,0,0,.75.75.77.77,0,0,0,.75-.75Z" transform="translate(-5.36 -69.67)"/><path class="cls-2" d="M122.31,146.76c-15.3-1.48-30.64-2.45-46-3.22Q64.68,143,53,142.48c-7.38-.32-14.81-.74-22.16.3-8.1,1.16-16.38,4.61-24.57,2.18l.33,1.26c11.14-11,27.34-13.48,42.29-14.61,16.54-1.25,33.13-1.41,49.71-1.35,3.23,0,6.37-.15,9.59-.34,2.43-.15,6.09-.5,7.83,1.62.61.75,1.67-.32,1.06-1.06-1.47-1.8-4.07-2.08-6.24-2.13-2.55-.06-5.08.36-7.63.43-8.51.22-17-.05-25.55.09-8.7.15-17.4.45-26.09,1-8.38.57-16.83,1.33-24.95,3.62-7.8,2.19-15.27,5.88-21.08,11.61a.76.76,0,0,0,.33,1.26c6.9,2.05,13.94.08,20.76-1.35,7.6-1.58,15.21-1.55,22.93-1.23,15.51.65,31,1.33,46.52,2.34,8.74.56,17.47,1.24,26.19,2.09,1,.09,1-1.41,0-1.5Z" transform="translate(-5.36 -69.67)"/><path class="cls-3" d="M137.87,208.78a4.87,4.87,0,0,0-2.81,2c-.69,1.16-.35,2.35-.1,3.59a30.15,30.15,0,0,0,2.89,8.41,8.34,8.34,0,0,0,5.84,4.37,15.83,15.83,0,0,0,3.83.17,9.29,9.29,0,0,0,3.6-.58c1.47-.82.49-2.32-.1-3.38l-2.84-5a.75.75,0,0,0-1.3.76l2.44,4.3c.11.21,1.22,1.81,1,2.05s-1.33.23-1.66.26c-2.5.27-5.32.39-7.45-1.16s-3.19-4.65-4-7.15a37.62,37.62,0,0,1-1.06-4.34,1.9,1.9,0,0,1,.25-1.7,3.5,3.5,0,0,1,1.79-1.15c.92-.29.53-1.74-.4-1.44Z" transform="translate(-5.36 -69.67)"/><path class="cls-3" d="M54.35,110.3A13.36,13.36,0,0,1,70.74,95.92a.76.76,0,0,0,.84-.34,13.57,13.57,0,0,1,19.06-4,13.8,13.8,0,0,1,5.5,8c.54,2.16.1,4.78,0,7q-.18,3.7-.53,7.41c-.09,1,1.42.95,1.5,0q.62-6.54.72-13.1c0-2.67-1.53-5.59-3.16-7.61a14.89,14.89,0,0,0-16.37-4.81,15.37,15.37,0,0,0-8,6.3l.85-.34a15.36,15.36,0,0,0-13.33,3.29,15.05,15.05,0,0,0-5,12.53c.08,1,1.58,1,1.5,0Z" transform="translate(-5.36 -69.67)"/><path class="cls-3" d="M53.82,103.33c-.65,2.85-1.32,5.8-.85,8.73a14.94,14.94,0,0,0,3.53,7A32.47,32.47,0,0,0,69.92,129c2.8,1.07,6,.54,8.89.32,1.91-.15,4-1.28,5.68-2.14A32.37,32.37,0,0,0,91,122.81c3.66-3.15,8.76-9,4.55-13.74-.64-.72-1.7.34-1.06,1.06,3.57,4-1.76,9.25-4.7,11.75a31.17,31.17,0,0,1-6,4,17.17,17.17,0,0,1-4.92,1.94c-1.19.17-2.45.15-3.66.22a12.13,12.13,0,0,1-3.35,0c-2.41-.51-4.71-2-6.78-3.3A27.89,27.89,0,0,1,59.26,120c-1.85-2-3.77-4.28-4.55-6.94-.9-3-.13-6.28.56-9.29.22-.94-1.23-1.34-1.45-.4Z" transform="translate(-5.36 -69.67)"/><path class="cls-1" d="M55.66,115.41a19.09,19.09,0,0,1-1.45-10.65,35.85,35.85,0,0,1,2.67-9.42,18.8,18.8,0,0,1,6.39-7.66c1.6-1,4-1.36,5.17-3L67.14,84l-2,3.21a.75.75,0,0,0,1.18.91,25,25,0,0,1,17.7-7.82l-.65-1.12L82,81.77a.76.76,0,0,0,.85,1.1,23.18,23.18,0,0,1,17.45,3.23l.38-1.4-4.47.47a.75.75,0,0,0-.2,1.47,25.56,25.56,0,0,1,14.35,15c.32.9,1.77.51,1.45-.4a27.18,27.18,0,0,0-15.4-16l-.2,1.47,4.47-.47a.76.76,0,0,0,.38-1.4A24.73,24.73,0,0,0,82.4,81.43l.85,1.1,1.47-2.63a.76.76,0,0,0-.65-1.13A26.49,26.49,0,0,0,65.31,87l1.17.91,2-3.21c.51-.85-.73-1.51-1.3-.76S64.87,85.22,64,85.64a12.59,12.59,0,0,0-3,2,20.86,20.86,0,0,0-5.86,8.18c-2.58,6.52-3.66,13.78-.69,20.33.39.88,1.69.12,1.29-.75Z" transform="translate(-5.36 -69.67)"/><path class="cls-1" d="M107,119.27c-11.61,7.65-26.43,12.52-39.89,6.69-.88-.38-1.64.92-.76,1.3,14,6,29.29,1.29,41.41-6.69.8-.53,0-1.83-.76-1.3Z" transform="translate(-5.36 -69.67)"/><path class="cls-4" d="M66.27,125.64c-3-3.13.65-7.43,1.88-10.46s1-6.92-2.37-8.48c-3-1.4-6.22.21-8.1,2.7a13.7,13.7,0,0,0-2.24,5.11,9.55,9.55,0,0,0-.48,2.58,5.76,5.76,0,0,0,1.27,2.2,24.83,24.83,0,0,0,10.08,8c.87.39,1.64-.9.76-1.3a22.89,22.89,0,0,1-10.71-9.25l.08.58c.46-3.05,1.28-6.43,3.83-8.44,2.15-1.7,5.75-1.62,6.88,1.28,1.24,3.15-1.51,6.39-2.67,9.13-1.05,2.45-1.23,5.37.73,7.44.66.7,1.72-.36,1.06-1.06Z" transform="translate(-5.36 -69.67)"/><path d="M79,117.73l.08,0c1.22-.77,1.54-2.38,1.75-3.81a4,4,0,0,0-.32-2.91,2.72,2.72,0,0,0-3.17-.67,7,7,0,0,0-2.42,1.86,7.28,7.28,0,0,0-2.19.8,2.42,2.42,0,0,0,.23,4.45,8,8,0,0,0,2.9.66A5.22,5.22,0,0,0,79,117.73Z" transform="translate(-5.36 -69.67)"/><path d="M79.36,118.38a4.78,4.78,0,0,0,2-3.25,6.87,6.87,0,0,0,0-4.16,3.13,3.13,0,0,0-3.27-1.63,6.31,6.31,0,0,0-3.71,2.28l.33-.2a5.58,5.58,0,0,0-3.62,2.1,3,3,0,0,0,.31,3.6,5.59,5.59,0,0,0,3.79,1.62,6.94,6.94,0,0,0,4.18-.36c.85-.46.09-1.76-.76-1.3a4.27,4.27,0,0,1-2.45.26,8.93,8.93,0,0,1-2.62-.49,2.29,2.29,0,0,1-1.41-1.47,1.78,1.78,0,0,1,.86-1.71,4.18,4.18,0,0,1,1.15-.54,3.25,3.25,0,0,0,1.36-.51,7.65,7.65,0,0,1,1.93-1.56,2.37,2.37,0,0,1,1.9-.1,1.65,1.65,0,0,1,.85,1.7,10.34,10.34,0,0,1-.39,2.59,2.93,2.93,0,0,1-1.18,1.83A.75.75,0,0,0,79.36,118.38Z" transform="translate(-5.36 -69.67)"/><path d="M75.22,123.13A11.75,11.75,0,0,0,84.73,116a.75.75,0,0,0-.52-.92.78.78,0,0,0-.93.52,10.17,10.17,0,0,1-8.06,6,.77.77,0,0,0-.75.75.76.76,0,0,0,.75.75Z" transform="translate(-5.36 -69.67)"/><path class="cls-1" d="M101.88,89.7a223.24,223.24,0,0,0,41.69-9.59l-.84-1.1L140,84.39c-.31.62.37,1.49,1,1a79.72,79.72,0,0,1,52.68-14,76.69,76.69,0,0,1,15.45,3l.2-1.47-6.54.71c-.64.07-1.14,1.07-.37,1.4a79,79,0,0,1,33.8,28.2l1.18-.91L232,98.16c-.62-.49-1.66.12-1.18.91a55.65,55.65,0,0,1,7.65,36.9c-.94,6.44-3.81,12.74-3.29,19.34.51,6.43,3.8,12.15,6.86,17.67,3.62,6.51,7.43,14,5.39,21.63a.75.75,0,0,0,1.45.4c3.72-13.94-9.34-24.57-11.87-37.35-1.4-7.08,1.72-13.78,2.81-20.67a57,57,0,0,0-7.7-38.68l-1.18.91,5.46,4.28c.61.48,1.69-.14,1.17-.91a80.17,80.17,0,0,0-34.34-28.73l-.38,1.39,6.54-.71a.76.76,0,0,0,.2-1.48,81.15,81.15,0,0,0-55.19,3.2,77.51,77.51,0,0,0-14.1,7.86l1,1L144,79.76c.28-.54-.19-1.32-.85-1.1a220.65,220.65,0,0,1-41.29,9.54c-.94.13-1,1.63,0,1.5Z" transform="translate(-5.36 -69.67)"/><path class="cls-1" d="M199.27,152.12a40.18,40.18,0,0,0,5,8.89.76.76,0,0,0,1.37-.58l-1.15-8.14c-.12-.83-1.54-.65-1.47.2a43.87,43.87,0,0,0,10.52,25.11.77.77,0,0,0,1.29-.54l-.41-9.91h-1.5c1.16,12.07,8.45,23,18.67,29.38a39.59,39.59,0,0,0,9.63,4.35c.92.28,1.32-1.17.4-1.45-14.3-4.3-25.76-17.26-27.2-32.28-.09-.94-1.54-1-1.5,0l.41,9.91,1.28-.53a42,42,0,0,1-10.09-24l-1.47.19,1.14,8.15,1.37-.58a39,39,0,0,1-4.87-8.53c-.36-.88-1.81-.5-1.44.4Z" transform="translate(-5.36 -69.67)"/><path class="cls-1" d="M194.76,120.29c2.38,4.24,2.06,9.22,1.86,13.91,0,1,1.46,1,1.5,0,.21-5,.45-10.17-2.07-14.66a.75.75,0,0,0-1.29.75Z" transform="translate(-5.36 -69.67)"/><path class="cls-1" d="M182,153.09a37.85,37.85,0,0,0,11,25c.41.41,1.36.14,1.28-.53L193,167l-1.47.2a66.19,66.19,0,0,0,27,36.62c.81.52,1.56-.77.76-1.3a64.58,64.58,0,0,1-26.28-35.72c-.23-.77-1.58-.67-1.47.2l1.37,10.54,1.28-.53a36.22,36.22,0,0,1-10.59-23.95c0-1-1.55-1-1.5,0Z" transform="translate(-5.36 -69.67)"/><path class="cls-1" d="M229.27,200.36l1.53-4.9a.75.75,0,0,0-.53-.92.76.76,0,0,0-.92.52l-1.52,4.9a.75.75,0,1,0,1.44.4Z" transform="translate(-5.36 -69.67)"/><path class="cls-1" d="M159.8,154.13c.52,2.09,1,4.19,1.42,6.3l1.25-.73-4.26-3.35a.75.75,0,0,0-1.17.91,39.56,39.56,0,0,1,4.29,13.32l1.28-.53-2.18-2.62c-.45-.54-1.24-.06-1.28.53a72.62,72.62,0,0,0,8.75,39.41l.65-1.13a6,6,0,0,1-4.42-2.11l-1.06,1.06a10.14,10.14,0,0,1,1,13.41c-.6.74.45,1.81,1.06,1.06a11.65,11.65,0,0,0-1-15.53.75.75,0,0,0-1.06,1.06,7.52,7.52,0,0,0,5.48,2.55.76.76,0,0,0,.65-1.13A71.09,71.09,0,0,1,160.65,168l-1.28.53,2.18,2.62a.76.76,0,0,0,1.28-.53,41.67,41.67,0,0,0-4.5-14.08l-1.18.91,4.26,3.35a.76.76,0,0,0,1.26-.73q-.63-3.17-1.43-6.3a.75.75,0,0,0-1.44.4Z" transform="translate(-5.36 -69.67)"/><path class="cls-1" d="M104.39,112.74a39.71,39.71,0,0,0,10.6,21,.75.75,0,0,0,1.25-.73l-1.59-6.26-1.37.58c9.85,15,11.7,33.18,14,50.49.69,5.18,1.45,10.36,2.49,15.49a.76.76,0,0,0,1.45,0l1.64-5.75-1.47-.2a42.39,42.39,0,0,0,20.12,35.31.75.75,0,0,0,.76-1.3,40.82,40.82,0,0,1-19.38-34,.75.75,0,0,0-1.47-.2l-1.65,5.75h1.45c-3.61-17.83-3.74-36.46-10.26-53.63a65,65,0,0,0-6.4-12.71.75.75,0,0,0-1.37.58l1.59,6.26,1.25-.73a38.33,38.33,0,0,1-10.21-20.31c-.16-1-1.61-.55-1.45.4Z" transform="translate(-5.36 -69.67)"/><path class="cls-1" d="M150.7,129.88a121.35,121.35,0,0,1,9.1,24.25.75.75,0,0,0,1.44-.4A122.32,122.32,0,0,0,152,129.12c-.43-.86-1.73-.1-1.29.76Z" transform="translate(-5.36 -69.67)"/><path class="cls-2" d="M197.38,133.3l-46-4.55c-1-.09-1,1.41,0,1.5l46,4.55c1,.1,1-1.4,0-1.5Z" transform="translate(-5.36 -69.67)"/><path class="cls-1" d="M201.16,152.74a37.08,37.08,0,0,1-2.7-9.1,47.29,47.29,0,0,1-.33-9.59c0-1-1.46-1-1.5,0a49,49,0,0,0,.38,10,38.49,38.49,0,0,0,2.86,9.45c.39.89,1.68.12,1.29-.75Z" transform="translate(-5.36 -69.67)"/><path class="cls-2" d="M160.77,155.49a289.92,289.92,0,0,1,39.74-1.62.75.75,0,0,0,0-1.5A289.92,289.92,0,0,0,160.77,154c-1,.1-1,1.6,0,1.5Z" transform="translate(-5.36 -69.67)"/><path class="cls-2" d="M240,134a223.17,223.17,0,0,0,45.63-1.55l-.85-.34c2.31,3.66,4.73,7.34,6.22,11.43a21.78,21.78,0,0,1,1.36,6.36,16.61,16.61,0,0,1-.14,3.23c-.08.55-.24,1.08-.34,1.63,0,.14-.11.6,0,.52-.39.34-1.62.25-2.09.28-1.12.07-2.25.09-3.38.11-2.29,0-4.59,0-6.88,0-10.41-.16-20.89.15-31.29-.55a51.63,51.63,0,0,1-7.74-1c-.8-.18-3.49-.69-3.55-1.64s-1.56-1-1.5,0c.1,1.43,1.51,2.11,2.7,2.55a27.85,27.85,0,0,0,6.45,1.23c5.14.56,10.32.63,15.48.68,6.32.05,12.64.09,18.95.17,2.46,0,4.92.08,7.38,0,1.81,0,4.23.23,5.95-.47,1.28-.52,1.3-2.74,1.44-3.91a20.46,20.46,0,0,0-.64-7.51c-1.36-5.08-4.29-9.53-7.05-13.93a.81.81,0,0,0-.85-.35,221.39,221.39,0,0,1-45.23,1.5c-1-.07-1,1.43,0,1.5Z" transform="translate(-5.36 -69.67)"/><path d="M61.2,114.23a3.5,3.5,0,0,0,3.86.1,3.55,3.55,0,0,0,1.5-3.56.75.75,0,0,0-.92-.52.77.77,0,0,0-.52.92c0,.18,0-.12,0,0s0,.12,0,.18a1.28,1.28,0,0,1,0,.19s0,.22,0,0c0,.11,0,.22-.07.33l-.06.18c0,.07,0,.11,0,0-.06.11-.11.22-.18.33a1.3,1.3,0,0,1-.1.15c-.11.16.1-.1,0,0l-.24.24s-.17.14-.09.08l-.1.07-.31.16c.15-.07,0,0-.06,0l-.18,0-.19,0c-.16,0,.12,0-.06,0a2,2,0,0,1-.35,0h-.16c-.18,0,.1,0,0,0a2.66,2.66,0,0,1-.38-.1s-.21-.08-.06,0l-.17-.09a2.2,2.2,0,0,1-.32-.21.76.76,0,0,0-1,.27.78.78,0,0,0,.27,1Z" transform="translate(-5.36 -69.67)"/><path class="cls-3" d="M135.88,212.31l2.61,5.62a26,26,0,0,0,2.66,4.71c2.07,2.74,5.31,4.75,8.84,4.4.95-.1,1-1.6,0-1.5-3.38.34-6.3-1.73-8.1-4.44a32.11,32.11,0,0,1-2.26-4.26c-.82-1.76-1.63-3.53-2.45-5.29-.41-.88-1.7-.12-1.3.76Z" transform="translate(-5.36 -69.67)"/><path class="cls-3" d="M150,223.85a12.61,12.61,0,0,1-8.55-11.92.75.75,0,0,0-1.5,0,14.15,14.15,0,0,0,9.65,13.37c.92.31,1.31-1.14.4-1.45Z" transform="translate(-5.36 -69.67)"/><path class="cls-3" d="M151.56,218.24c.94,4.29,2,8.91,5.46,11.95s7.81,2.9,11.79,1a.74.74,0,0,0,.34-.84l-2.81-9-1.4-4.5a30.69,30.69,0,0,0-1.33-4,3.44,3.44,0,0,0-2-2c-1.25-.37-2.5.29-3.59.84a28.72,28.72,0,0,0-6.76,4.75c-.71.66.35,1.72,1.06,1.06a27.23,27.23,0,0,1,5.7-4.12c.95-.51,2.6-1.66,3.62-.84.81.65,1,2,1.34,3l4.75,15.2.34-.85c-3.69,1.72-7.7,1.61-10.63-1.45-2.74-2.86-3.6-6.9-4.41-10.64-.21-.95-1.65-.55-1.45.39Z" transform="translate(-5.36 -69.67)"/><path class="cls-3" d="M154.87,214a19.3,19.3,0,0,0,8.34,18.5c.8.54,1.55-.76.75-1.29a17.75,17.75,0,0,1-7.64-16.81c.13-.94-1.32-1.35-1.45-.4Z" transform="translate(-5.36 -69.67)"/><path class="cls-3" d="M157.22,212.86c1,3.78,2,7.6,3.08,11.35.91,3,2.47,6.06,5.65,7.18.91.32,1.31-1.13.4-1.45-3.1-1.09-4.17-4.51-4.95-7.38-.92-3.36-1.82-6.73-2.73-10.1a.75.75,0,0,0-1.45.4Z" transform="translate(-5.36 -69.67)"/><path class="cls-3" d="M219.33,203c1.79,3.28,3.82,6.77,7.3,8.51,2.92,1.46,6.87,1.34,9.08-1.35a3,3,0,0,0-.22-4.32,17.32,17.32,0,0,0-1.8-1.36,17.78,17.78,0,0,1-2.16-1.91,19.3,19.3,0,0,1-3.24-4.63c-.72-1.39-1.64-2.75-3.32-3a4.7,4.7,0,0,0-4.24,2.08c-1.26,1.79-1.26,4.15-1.22,6.24a.75.75,0,0,0,1.5,0,10.87,10.87,0,0,1,.59-4.74,3.45,3.45,0,0,1,2.87-2.11c1.52,0,2.14,1.54,2.74,2.67a20.38,20.38,0,0,0,2.4,3.56,19.73,19.73,0,0,0,3.12,2.94c.94.71,2.9,1.63,2.16,3.09-1.36,2.66-5.2,2.65-7.51,1.5-3.25-1.61-5.08-4.91-6.76-8-.46-.85-1.75-.09-1.29.76Z" transform="translate(-5.36 -69.67)"/><path class="cls-3" d="M220.41,201.86c2.48,5.32,7.72,9.35,13.68,9.56,1,0,1-1.46,0-1.5-5.46-.19-10.13-4-12.38-8.81-.41-.88-1.7-.12-1.3.75Z" transform="translate(-5.36 -69.67)"/><path class="cls-3" d="M222.41,196.81A21.22,21.22,0,0,0,235,210.39c.9.35,1.29-1.1.39-1.44a19.64,19.64,0,0,1-11.51-12.54c-.28-.92-1.73-.53-1.45.4Z" transform="translate(-5.36 -69.67)"/><path class="cls-3" d="M253.56,205.68c1.93-.52,4.1-2,3.56-4.31a3,3,0,0,0-2-2,17,17,0,0,1-2.72-1.23c-3.41-2.12-5.66-5.68-9.18-7.67a.76.76,0,0,0-.91.12,9.1,9.1,0,0,0-.39,11.33c2.62,3.54,7.44,4.81,11.61,3.77.94-.23.54-1.68-.4-1.45-3.5.88-7.66-.13-9.92-3.08a7.61,7.61,0,0,1,.16-9.51l-.91.12c3,1.69,5.07,4.54,7.75,6.64a13.89,13.89,0,0,0,2,1.37,21.74,21.74,0,0,0,2.29,1c.89.36,1.42,1.05.95,2a3.43,3.43,0,0,1-2.35,1.49A.75.75,0,0,0,253.56,205.68Z" transform="translate(-5.36 -69.67)"/><path class="cls-3" d="M241.48,193.91A12.11,12.11,0,0,0,254,200.36c1-.15.54-1.59-.4-1.45a10.62,10.62,0,0,1-10.87-5.76c-.42-.86-1.72-.1-1.29.76Z" transform="translate(-5.36 -69.67)"/><path class="cls-3" d="M240.91,197.85a24.41,24.41,0,0,0,14.92,6.51c1,.07.95-1.43,0-1.5A22.81,22.81,0,0,1,242,196.79c-.71-.66-1.77.4-1.06,1.06Z" transform="translate(-5.36 -69.67)"/><path class="cls-5" d="M85.54,138.45H98.45a.38.38,0,0,0,0-.75H85.54a.38.38,0,0,0,0,.75Z" transform="translate(-5.36 -69.67)"/><path class="cls-5" d="M94,133h8.15a.38.38,0,0,0,0-.75H94a.38.38,0,0,0,0,.75Z" transform="translate(-5.36 -69.67)"/><path class="cls-5" d="M158.23,144.57h9.18a.38.38,0,0,0,0-.75h-9.18a.38.38,0,0,0,0,.75Z" transform="translate(-5.36 -69.67)"/><path class="cls-5" d="M171.15,137.31l17.31.9c.48,0,.48-.73,0-.75l-17.31-.9c-.48,0-.48.72,0,.75Z" transform="translate(-5.36 -69.67)"/><path class="cls-5" d="M239.42,139.47h19a.38.38,0,0,0,0-.75h-19a.38.38,0,0,0,0,.75Z" transform="translate(-5.36 -69.67)"/><path class="cls-5" d="M242.47,145.38c4.75.28,9.52.34,14.27.18.49,0,.49-.77,0-.75-4.75.16-9.52.1-14.27-.18-.48,0-.48.72,0,.75Z" transform="translate(-5.36 -69.67)"/><path class="cls-5" d="M36.28,136.62c8.39,0,16.79-.28,25.19-.5.48,0,.48-.77,0-.75-8.4.22-16.8.51-25.19.5a.38.38,0,0,0,0,.75Z" transform="translate(-5.36 -69.67)"/><path class="cls-4" d="M83.33,97.47a6.33,6.33,0,0,0-4.57,4,6.76,6.76,0,0,0,.59,5.38,5.82,5.82,0,0,0,4.72,2.83c2.21.19,4.37-.53,6.57-.64a5,5,0,0,1,3.44.85,20.93,20.93,0,0,1,2.06,2.15.75.75,0,0,0,1.25-.33,36.41,36.41,0,0,0,.12-10.32.75.75,0,0,0-1.47-.2c-.51,1.39-2.13,1.13-3.14.48A29.53,29.53,0,0,1,90,99a7.75,7.75,0,0,0-6.69-1.52c-.94.21-.55,1.66.4,1.45a6.35,6.35,0,0,1,4.2.46c1.36.69,2.21,2,3.34,3,1.92,1.69,5.16,2.17,6.21-.7l-1.47-.2a35.44,35.44,0,0,1-.06,9.92L97.2,111a26.15,26.15,0,0,0-2.06-2.15A5.64,5.64,0,0,0,92,107.61c-2.51-.26-5,.71-7.46.63a4.48,4.48,0,0,1-4.52-4,4.75,4.75,0,0,1,3.73-5.35A.75.75,0,0,0,83.33,97.47Z" transform="translate(-5.36 -69.67)"/><path d="M81.49,105.68a3.71,3.71,0,0,0,3.75.23,3.75,3.75,0,0,0,2-3.07.75.75,0,0,0-1.5,0v.1c0-.1,0,.08,0,.1a3,3,0,0,1-.08.32l-.07.19c0-.1,0,0,0,0s-.11.2-.17.3a1.13,1.13,0,0,1-.1.13c.07-.08,0,0,0,0l-.24.24-.12.11c.11-.1,0,0-.07,0a1.61,1.61,0,0,1-.28.17l-.1,0-.11,0a1.89,1.89,0,0,1-.34.09l-.11,0c.1,0-.09,0-.11,0h-.35s-.23,0-.08,0l-.14,0a2.54,2.54,0,0,1-.37-.1s-.17-.07,0,0l-.15-.08a2.63,2.63,0,0,1-.33-.2.75.75,0,0,0-1,.27.77.77,0,0,0,.27,1Z" transform="translate(-5.36 -69.67)"/><path class="cls-4" d="M130.85,149.27a23.28,23.28,0,0,1,2.85,9.79.75.75,0,0,0,.75.75c1.72,0,1.67-1.86,2.39-2.93a.54.54,0,0,1,.16-.14c-.08,0-.1,0,0,.07a2,2,0,0,1,.22.59l.49,1.44,1,3a.76.76,0,0,0,1.37.18,7.81,7.81,0,0,0,1.22-4.23.75.75,0,0,0-1.5,0,6.39,6.39,0,0,1-1,3.47l1.37.18-1.24-3.59c-.29-.85-.5-2.13-1.45-2.49a1.77,1.77,0,0,0-2.08,1,4.51,4.51,0,0,0-.43,1.16c-.07.23-.2.83-.51.83l.75.75a24.89,24.89,0,0,0-3.06-10.54c-.47-.85-1.76-.09-1.29.75Z" transform="translate(-5.36 -69.67)"/><path class="cls-4" d="M144.3,181.23a44.59,44.59,0,0,0,1,13.43.76.76,0,0,0,1.37.18A10.76,10.76,0,0,0,147.9,191l-.55.72c.16,0,.63,1.46.73,1.62a1.61,1.61,0,0,0,1.48.77c1.26-.1,1.73-1.6,1.84-2.65s-1.39-.95-1.5,0c0,.28-.14.95-.42,1.1s-.32-.5-.38-.69c-.29-1-1-1.93-2.15-1.59a.77.77,0,0,0-.55.72,8.9,8.9,0,0,1-1,3.1l1.37.18a42.91,42.91,0,0,1-1-13c.08-1-1.42-1-1.5,0Z" transform="translate(-5.36 -69.67)"/><path class="cls-4" d="M215.91,128.57v5.76c0,1.18-.17,3.11,1.21,3.67a1.48,1.48,0,0,0,1.68-.51c.15-.18.27-.44.52-.47s.58.23.76.4a7.15,7.15,0,0,1,1,1.69,3.19,3.19,0,0,0,1.43,1.36.77.77,0,0,0,1.1-.44,4.78,4.78,0,0,1,3.35-2.77c.94-.23.54-1.67-.4-1.45a6.4,6.4,0,0,0-4.4,3.82l1.11-.45c-1.14-.48-1.32-2-2.18-2.82s-2.35-1.2-3.27-.1a3.11,3.11,0,0,0-.23.28c-.09.13,0,0,.05.08-.13-.09-.18-.35-.22-.49a9.87,9.87,0,0,1-.06-2.24v-5.32a.75.75,0,0,0-1.5,0Z" transform="translate(-5.36 -69.67)"/><path class="cls-4" d="M222.78,171.69a16.48,16.48,0,0,0,5.23,6.82.74.74,0,0,0,.83,0,.79.79,0,0,0,.27-.79,2.55,2.55,0,0,1,.68-2.28c.66-.68,1.59-1.51,1.19-2.57a.79.79,0,0,0-.93-.53.76.76,0,0,0-.52.93.84.84,0,0,1,.05.17.06.06,0,0,1,0-.06c0,.12,0,0-.07.14a2.17,2.17,0,0,1-.39.47,7.21,7.21,0,0,0-1,1.1,4.17,4.17,0,0,0-.5,3l1.1-.85a14.61,14.61,0,0,1-4.53-5.93.78.78,0,0,0-.92-.53.77.77,0,0,0-.53.93Z" transform="translate(-5.36 -69.67)"/><path class="cls-4" d="M199.64,174a10.06,10.06,0,0,0,2.33,4.42.75.75,0,0,0,1.25-.33c0-.14.08-.28.13-.42l.06-.19,0-.1c0,.07,0,.08,0,0a3.25,3.25,0,0,1,.21-.37c-.07.1,0,0,.06-.05s.19-.13,0,0l.13-.07c-.13.08,0,0,0,0l.07,0h-.06s.12,0,.16,0-.13,0,0,0,0,0,0,0l.08.05,0,0s0,0,0-.06a.41.41,0,0,1,.05.09.75.75,0,0,0,1.3-.75,1.73,1.73,0,0,0-2.3-.57,3.11,3.11,0,0,0-1.35,2.11l1.26-.33-.39-.45c0-.07-.06-.08,0,0l-.09-.12a1.18,1.18,0,0,1-.13-.18,8.85,8.85,0,0,1-.6-1l-.24-.5-.06-.13c0,.06,0,.05,0,0l-.09-.24a10.68,10.68,0,0,1-.33-1.1.76.76,0,0,0-.92-.53.77.77,0,0,0-.52.93Z" transform="translate(-5.36 -69.67)"/><path class="cls-4" d="M220,188.36l-.27,2.06,0,.24v.11c0,.06,0,.12,0,0a.94.94,0,0,1-.08.33c0,.14,0-.05,0,0s0,.08,0,.07.09-.12,0-.06.07-.05.07-.05.11,0,.05,0,.18,0,.1,0,.18,0,.09,0,.12.08.07,0l-.07,0c-.06,0,.07,0,.07,0s-.09-.08-.12-.11a3,3,0,0,1-.23-.27,2,2,0,0,0-.69-.51,1.7,1.7,0,0,0-1.73.34,1.61,1.61,0,0,0-.53,1.76.85.85,0,0,0,.34.45.78.78,0,0,0,.58.07.75.75,0,0,0,.52-.92.74.74,0,0,0,0-.14c0-.05,0,.09,0,.1s0-.06,0-.07,0-.11,0,0,0,0,0,0a.42.42,0,0,0,0-.06s-.08.16,0,.07l.07-.12c0-.08-.11.12,0,.06l0-.05s.15-.13,0,0l.08-.05,0,0-.06,0s.11,0,.13,0l-.1,0h.14c.09,0-.17,0-.08,0s.11,0,0,0,0,0,0,0l.07.05s-.11-.11-.07-.05a3,3,0,0,0,.25.25,1.49,1.49,0,0,0,1.56.68,1.33,1.33,0,0,0,.85-.85,3.86,3.86,0,0,0,.16-.9l.31-2.3a.75.75,0,0,0-1.5,0Z" transform="translate(-5.36 -69.67)"/><path class="cls-4" d="M149.55,92.83c6.14-1.48,11.77,2.26,16.61,5.55v-1.3c-1.59.68-3.41-.22-5,.63a2.73,2.73,0,0,0-1,3.8,6.85,6.85,0,0,0,1.67,1.89c.28.25,1,.71.72,1.1s-.79.44-1.1.59l-6,3c-.87.44-.11,1.73.75,1.3l5.88-3c1.3-.64,2.93-1.67,1.69-3.27-.66-.85-3.89-3-1.93-4.13a4.59,4.59,0,0,1,2.49-.28,5.71,5.71,0,0,0,2.62-.4c.57-.24.41-1,0-1.3-5.21-3.54-11.17-7.28-17.76-5.7-.94.23-.54,1.67.4,1.45Z" transform="translate(-5.36 -69.67)"/><path class="cls-4" d="M188.06,102.58a53.83,53.83,0,0,1,8.2-2.08c1.43-.25,2.87-.43,4.32-.55.75-.06,1.51-.11,2.27-.14a8.74,8.74,0,0,0,1.69-.12,1.38,1.38,0,0,0,1-2,5.89,5.89,0,0,0-1.13-1.36L203,94.78l-6-6.49v1.06a2,2,0,0,1,1.73-.45c.42,0,.73-.39.75-.75a4.81,4.81,0,0,0-1.24-3.52c-.64-.73-1.69.34-1.06,1.06a3.34,3.34,0,0,1,.8,2.46l.75-.75a3.48,3.48,0,0,0-2.79.89.76.76,0,0,0,0,1.06L201,94.86l2.6,2.81a7,7,0,0,1,.54.52c.17,0,.13.06-.11.08h-.2c-.65.06-1.31,0-2,.08a54.15,54.15,0,0,0-14.2,2.77c-.91.31-.52,1.76.39,1.45Z" transform="translate(-5.36 -69.67)"/><path class="cls-4" d="M121.37,113.51a13.78,13.78,0,0,0,4.6-2.91,1.88,1.88,0,0,0,.67-2.31c-.44-.75-1.43-1-2.18-1.37l-1.44-.65c-.25-.11-1-.28-1-.56-.21-.53,1-1.28,1.3-1.56a2.12,2.12,0,0,0,.67-2.06,1.53,1.53,0,0,0-1.54-1.22c-1,.09-1,1.59,0,1.5.27,0,.06,0,0,0a.54.54,0,0,1,.08.21c0,.26-.19.45-.36.61a6.58,6.58,0,0,0-1.37,1.42,2,2,0,0,0-.14,1.83,3.13,3.13,0,0,0,1.72,1.21l2.21,1c.14.06.76.26.77.44s-.45.51-.57.62a11.82,11.82,0,0,1-3.79,2.39c-.89.35-.51,1.8.39,1.45Z" transform="translate(-5.36 -69.67)"/><path class="cls-4" d="M114.34,162.44a31.22,31.22,0,0,0-.18,4.32c0,.69-.1,1.59.7,1.86a1.58,1.58,0,0,0,1.61-.54,3.11,3.11,0,0,0,.44-.69c0-.06.18-.44.29-.44s.24.53.27.65a12.17,12.17,0,0,1,.16,1.81l.15,2.21c.07,1,1.57,1,1.5,0l-.22-3.09a4.44,4.44,0,0,0-.58-2.35,1.52,1.52,0,0,0-2-.52,2.29,2.29,0,0,0-.76.87,3.87,3.87,0,0,1-.26.49s-.14.1-.16.15-.21-.15.09,0l.37.65a31.44,31.44,0,0,1,.13-5.4.75.75,0,0,0-1.5,0Z" transform="translate(-5.36 -69.67)"/><path class="cls-3" d="M133.64,215.24a1.4,1.4,0,0,0,2.18-.29,1.93,1.93,0,0,0,.26-1.2c0-.38-.16-.79-.17-1.14a1.92,1.92,0,0,1,0-.24c0,.11,0-.12,0-.13a1.27,1.27,0,0,1,.12-.35,2.39,2.39,0,0,1,.54-.71,7.15,7.15,0,0,1,1.89-1.12.75.75,0,0,0,.27-1,.76.76,0,0,0-1-.27,5.53,5.53,0,0,0-3.12,2.69,3.56,3.56,0,0,0-.06,2.12,1.93,1.93,0,0,1,0,.33s0,.24,0,.13l0,.08s0,0,0,0a0,0,0,0,1,0,.06.21.21,0,0,1,.1-.06l-.06,0c.07,0,.09,0,0,0s0,0,0,0,.17.13.07,0a.75.75,0,0,0-1.06,1.06Z" transform="translate(-5.36 -69.67)"/><path class="cls-3" d="M153.21,221.43a4.58,4.58,0,0,0-.11-2.81c-.18-.62-.81-2-.18-2.53a7.06,7.06,0,0,1,1.35-.55,14.17,14.17,0,0,0,1.44-.76c.91-.54,1.78-1.15,2.71-1.65a6.55,6.55,0,0,1,3.06-.9c.57,0,.7.17.92.68a9.26,9.26,0,0,1,.36,1.13c.41,1.58.66,3.32,2,4.44.73.61,1.8-.44,1.06-1.07-1.45-1.21-1.35-3.45-2.05-5.09a2.27,2.27,0,0,0-2.28-1.59,7.78,7.78,0,0,0-3.4.89c-1.09.54-2.08,1.24-3.13,1.86a10.79,10.79,0,0,1-1.69.87,4.87,4.87,0,0,0-1.33.61c-2,1.56.5,4.2-.17,6.07-.33.91,1.12,1.3,1.45.4Z" transform="translate(-5.36 -69.67)"/></svg>